<svg width="44" height="44" viewBox="0 0 44 44" fill="none" xmlns="http://www.w3.org/2000/svg">
<rect width="44" height="44" fill="black"/>
<mask id="path-2-outside-1_5905_36127" maskUnits="userSpaceOnUse" x="11" y="7" width="18" height="21" fill="black">
<rect fill="white" x="11" y="7" width="18" height="21"/>
<path d="M17 27C15.9655 27 15.0172 26.8965 14.1552 26.6894C13.3123 26.4823 12.5939 26.2062 12 25.861V22.3924C12.5747 22.6685 13.1303 22.9101 13.6667 23.1172C14.2222 23.3243 14.7778 23.4882 15.3333 23.609C15.8889 23.7125 16.454 23.7643 17.0287 23.7643C17.5077 23.7643 17.9483 23.7298 18.3506 23.6608C18.7529 23.5745 19.0977 23.445 19.3851 23.2725C19.6916 23.0999 19.931 22.8928 20.1034 22.6512C20.2759 22.3924 20.3621 22.0904 20.3621 21.7452C20.3621 21.262 20.2567 20.8565 20.046 20.5286C19.8352 20.2007 19.5479 19.8987 19.1839 19.6226C18.8199 19.3465 18.3889 19.0531 17.8908 18.7425C17.3161 18.3629 16.7605 17.9401 16.2241 17.4741C15.6877 17.0082 15.2471 16.4646 14.9023 15.8433C14.5575 15.2048 14.3851 14.4628 14.3851 13.6172C14.3851 12.7888 14.5479 12.0381 14.8736 11.3651C15.1992 10.6748 15.6686 10.0795 16.2816 9.57902C16.9138 9.07856 17.6609 8.69028 18.523 8.41417C19.3851 8.13806 20.3525 8 21.4253 8C22.4981 8 23.4847 8.10354 24.3851 8.31063C25.2854 8.51771 26.1571 8.82834 27 9.24251L25.477 12.1935C24.749 11.8828 24.0498 11.6499 23.3793 11.4945C22.728 11.3392 22.0766 11.2616 21.4253 11.2616C21.0421 11.2616 20.6877 11.3134 20.3621 11.4169C20.0556 11.5032 19.7778 11.6412 19.5287 11.8311C19.2988 12.0036 19.1169 12.2193 18.9828 12.4782C18.8487 12.7371 18.7816 13.0218 18.7816 13.3324C18.7816 13.7639 18.8774 14.1349 19.069 14.4455C19.2797 14.7561 19.567 15.0495 19.931 15.3256C20.3142 15.5845 20.7739 15.8778 21.3103 16.2057C22.0766 16.6544 22.7088 17.1376 23.2069 17.6553C23.705 18.1558 24.0785 18.708 24.3276 19.312C24.5766 19.8987 24.7011 20.5545 24.7011 21.2793C24.7011 22.2457 24.5 23.0913 24.0977 23.8161C23.6954 24.5236 23.1398 25.119 22.431 25.6022C21.7222 26.0681 20.8985 26.4219 19.9598 26.6635C19.0402 26.8878 18.0536 27 17 27Z"/>
</mask>
<path d="M17 27C15.9655 27 15.0172 26.8965 14.1552 26.6894C13.3123 26.4823 12.5939 26.2062 12 25.861V22.3924C12.5747 22.6685 13.1303 22.9101 13.6667 23.1172C14.2222 23.3243 14.7778 23.4882 15.3333 23.609C15.8889 23.7125 16.454 23.7643 17.0287 23.7643C17.5077 23.7643 17.9483 23.7298 18.3506 23.6608C18.7529 23.5745 19.0977 23.445 19.3851 23.2725C19.6916 23.0999 19.931 22.8928 20.1034 22.6512C20.2759 22.3924 20.3621 22.0904 20.3621 21.7452C20.3621 21.262 20.2567 20.8565 20.046 20.5286C19.8352 20.2007 19.5479 19.8987 19.1839 19.6226C18.8199 19.3465 18.3889 19.0531 17.8908 18.7425C17.3161 18.3629 16.7605 17.9401 16.2241 17.4741C15.6877 17.0082 15.2471 16.4646 14.9023 15.8433C14.5575 15.2048 14.3851 14.4628 14.3851 13.6172C14.3851 12.7888 14.5479 12.0381 14.8736 11.3651C15.1992 10.6748 15.6686 10.0795 16.2816 9.57902C16.9138 9.07856 17.6609 8.69028 18.523 8.41417C19.3851 8.13806 20.3525 8 21.4253 8C22.4981 8 23.4847 8.10354 24.3851 8.31063C25.2854 8.51771 26.1571 8.82834 27 9.24251L25.477 12.1935C24.749 11.8828 24.0498 11.6499 23.3793 11.4945C22.728 11.3392 22.0766 11.2616 21.4253 11.2616C21.0421 11.2616 20.6877 11.3134 20.3621 11.4169C20.0556 11.5032 19.7778 11.6412 19.5287 11.8311C19.2988 12.0036 19.1169 12.2193 18.9828 12.4782C18.8487 12.7371 18.7816 13.0218 18.7816 13.3324C18.7816 13.7639 18.8774 14.1349 19.069 14.4455C19.2797 14.7561 19.567 15.0495 19.931 15.3256C20.3142 15.5845 20.7739 15.8778 21.3103 16.2057C22.0766 16.6544 22.7088 17.1376 23.2069 17.6553C23.705 18.1558 24.0785 18.708 24.3276 19.312C24.5766 19.8987 24.7011 20.5545 24.7011 21.2793C24.7011 22.2457 24.5 23.0913 24.0977 23.8161C23.6954 24.5236 23.1398 25.119 22.431 25.6022C21.7222 26.0681 20.8985 26.4219 19.9598 26.6635C19.0402 26.8878 18.0536 27 17 27Z" fill="white"/>
<path d="M14.1552 26.6894L13.9166 27.6605L13.9216 27.6617L14.1552 26.6894ZM12 25.861H11V26.4365L11.4975 26.7256L12 25.861ZM12 22.3924L12.4331 21.491L11 20.8025V22.3924H12ZM13.6667 23.1172L13.3065 24.0501L13.3174 24.0542L13.6667 23.1172ZM15.3333 23.609L15.1209 24.5862L15.1354 24.5893L15.1501 24.5921L15.3333 23.609ZM18.3506 23.6608L18.5197 24.6464L18.5401 24.6429L18.5603 24.6385L18.3506 23.6608ZM19.3851 23.2725L18.8945 22.4011L18.8822 22.408L18.8702 22.4152L19.3851 23.2725ZM20.1034 22.6512L20.9174 23.2321L20.9268 23.219L20.9357 23.2056L20.1034 22.6512ZM17.8908 18.7425L17.3396 19.5769L17.3505 19.5841L17.3616 19.591L17.8908 18.7425ZM16.2241 17.4741L15.5684 18.2291L15.5684 18.2291L16.2241 17.4741ZM14.9023 15.8433L14.0224 16.3185L14.028 16.3286L14.9023 15.8433ZM14.8736 11.3651L15.7738 11.8007L15.778 11.7918L14.8736 11.3651ZM16.2816 9.57902L15.6609 8.79496L15.655 8.79962L15.6492 8.80437L16.2816 9.57902ZM18.523 8.41417L18.828 9.36651L18.828 9.36651L18.523 8.41417ZM24.3851 8.31063L24.1609 9.28518L24.1609 9.28518L24.3851 8.31063ZM27 9.24251L27.8886 9.70113L28.3564 8.79478L27.441 8.345L27 9.24251ZM25.477 12.1935L25.0845 13.1132L25.9394 13.478L26.3656 12.6521L25.477 12.1935ZM23.3793 11.4945L23.1474 12.4673L23.1536 12.4688L23.3793 11.4945ZM20.3621 11.4169L20.633 12.3795L20.6491 12.375L20.6651 12.3699L20.3621 11.4169ZM19.5287 11.8311L20.1291 12.6308L20.1349 12.6264L19.5287 11.8311ZM18.9828 12.4782L19.8707 12.9382L19.8707 12.9382L18.9828 12.4782ZM19.069 14.4455L18.2178 14.9704L18.2292 14.9889L18.2414 15.0069L19.069 14.4455ZM19.931 15.3256L19.3267 16.1223L19.3485 16.1389L19.3712 16.1542L19.931 15.3256ZM21.3103 16.2057L20.7888 17.0589L20.7969 17.0639L20.8051 17.0687L21.3103 16.2057ZM23.2069 17.6553L22.4863 18.3486L22.4921 18.3547L22.4981 18.3607L23.2069 17.6553ZM24.3276 19.312L23.403 19.6932L23.4071 19.7027L24.3276 19.312ZM24.0977 23.8161L24.9671 24.3104L24.972 24.3014L24.0977 23.8161ZM22.431 25.6022L22.9803 26.4378L22.9874 26.4332L22.9943 26.4285L22.431 25.6022ZM19.9598 26.6635L20.1968 27.6351L20.209 27.6319L19.9598 26.6635ZM17 26C16.0315 26 15.1629 25.903 14.3887 25.717L13.9216 27.6617C14.8716 27.8899 15.8996 28 17 28V26ZM14.3938 25.7183C13.6203 25.5282 12.9955 25.283 12.5025 24.9964L11.4975 26.7256C12.1922 27.1293 13.0043 27.4364 13.9166 27.6605L14.3938 25.7183ZM13 25.861V22.3924H11V25.861H13ZM11.5669 23.2937C12.163 23.5801 12.7429 23.8325 13.3065 24.0501L14.0268 22.1843C13.5176 21.9877 12.9864 21.7569 12.4331 21.491L11.5669 23.2937ZM13.3174 24.0542C13.9156 24.2772 14.5169 24.4548 15.1209 24.5862L15.5458 22.6318C15.0387 22.5216 14.5288 22.3713 14.0159 22.1801L13.3174 24.0542ZM15.1501 24.5921C15.7671 24.7071 16.3936 24.7643 17.0287 24.7643V22.7643C16.5144 22.7643 16.0107 22.718 15.5166 22.6259L15.1501 24.5921ZM17.0287 24.7643C17.5549 24.7643 18.0529 24.7264 18.5197 24.6464L18.1815 22.6752C17.8436 22.7331 17.4604 22.7643 17.0287 22.7643V24.7643ZM18.5603 24.6385C19.0466 24.5342 19.4995 24.3702 19.8999 24.1298L18.8702 22.4152C18.6959 22.5199 18.4591 22.6147 18.1409 22.683L18.5603 24.6385ZM19.8757 24.1439C20.2866 23.9125 20.6455 23.6132 20.9174 23.2321L19.2895 22.0703C19.2166 22.1725 19.0966 22.2873 18.8945 22.4011L19.8757 24.1439ZM20.9357 23.2056C21.2293 22.7648 21.3621 22.2652 21.3621 21.7452H19.3621C19.3621 21.9156 19.3224 22.02 19.2712 22.0969L20.9357 23.2056ZM21.3621 21.7452C21.3621 21.1163 21.2239 20.5119 20.8872 19.988L19.2047 21.0693C19.2895 21.2011 19.3621 21.4078 19.3621 21.7452H21.3621ZM20.8872 19.988C20.6033 19.5461 20.2299 19.1609 19.7883 18.8259L18.5795 20.4193C18.8659 20.6366 19.0672 20.8553 19.2047 21.0693L20.8872 19.988ZM19.7883 18.8259C19.3943 18.5271 18.937 18.2165 18.42 17.894L17.3616 19.591C17.8407 19.8898 18.2455 20.1659 18.5795 20.4193L19.7883 18.8259ZM18.442 17.9081C17.905 17.5534 17.3843 17.1573 16.8799 16.7192L15.5684 18.2291C16.1368 18.7228 16.7272 19.1723 17.3396 19.5769L18.442 17.9081ZM16.8799 16.7192C16.4315 16.3297 16.0649 15.8773 15.7766 15.358L14.028 16.3286C14.4294 17.0518 14.9439 17.6867 15.5684 18.2291L16.8799 16.7192ZM15.7822 15.3681C15.5283 14.8981 15.3851 14.3244 15.3851 13.6172H13.3851C13.3851 14.6011 13.5866 15.5116 14.0224 16.3185L15.7822 15.3681ZM15.3851 13.6172C15.3851 12.9232 15.5206 12.3238 15.7737 11.8007L13.9734 10.9295C13.5752 11.7524 13.3851 12.6544 13.3851 13.6172H15.3851ZM15.778 11.7918C16.0377 11.2414 16.4121 10.7634 16.914 10.3537L15.6492 8.80437C14.9251 9.39552 14.3608 10.1083 13.9692 10.9384L15.778 11.7918ZM16.9023 10.3631C17.4294 9.94582 18.0665 9.61043 18.828 9.36651L18.218 7.46183C17.2554 7.77014 16.3982 8.21131 15.6609 8.79496L16.9023 10.3631ZM18.828 9.36651C19.5752 9.1272 20.4374 9 21.4253 9V7C20.2676 7 19.1949 7.14892 18.218 7.46183L18.828 9.36651ZM21.4253 9C22.4344 9 23.3447 9.09746 24.1609 9.28518L24.6092 7.33607C23.6246 7.10963 22.5617 7 21.4253 7V9ZM24.1609 9.28518C24.9851 9.47473 25.784 9.75922 26.559 10.14L27.441 8.345C26.5302 7.89745 25.5858 7.56069 24.6092 7.33607L24.1609 9.28518ZM26.1114 8.78388L24.5884 11.7348L26.3656 12.6521L27.8886 9.70113L26.1114 8.78388ZM25.8695 11.2737C25.0954 10.9434 24.3403 10.6907 23.605 10.5203L23.1536 12.4688C23.7593 12.6091 24.4026 12.8223 25.0845 13.1132L25.8695 11.2737ZM23.6113 10.5218C22.8861 10.3489 22.1569 10.2616 21.4253 10.2616V12.2616C21.9963 12.2616 22.5699 12.3296 23.1474 12.4673L23.6113 10.5218ZM21.4253 10.2616C20.9516 10.2616 20.4938 10.3257 20.0591 10.4639L20.6651 12.3699C20.8817 12.301 21.1327 12.2616 21.4253 12.2616V10.2616ZM20.0911 10.4543C19.6654 10.5741 19.2735 10.7682 18.9225 11.0358L20.1349 12.6264C20.2821 12.5142 20.4457 12.4322 20.633 12.3795L20.0911 10.4543ZM18.9284 11.0313C18.5766 11.2954 18.297 11.6279 18.0948 12.0182L19.8707 12.9382C19.9367 12.8108 20.0211 12.7118 20.1291 12.6308L18.9284 11.0313ZM18.0948 12.0182C17.8823 12.4285 17.7816 12.8725 17.7816 13.3324H19.7816C19.7816 13.1711 19.815 13.0456 19.8707 12.9382L18.0948 12.0182ZM17.7816 13.3324C17.7816 13.9151 17.9124 14.4753 18.2178 14.9704L19.9201 13.9206C19.8424 13.7945 19.7816 13.6126 19.7816 13.3324H17.7816ZM18.2414 15.0069C18.5249 15.4247 18.8942 15.7942 19.3267 16.1223L20.5354 14.5289C20.2399 14.3048 20.0345 14.0876 19.8965 13.8841L18.2414 15.0069ZM19.3712 16.1542C19.7705 16.424 20.2437 16.7257 20.7888 17.0589L21.8319 15.3525C21.3042 15.0299 20.8579 14.745 20.4909 14.497L19.3712 16.1542ZM20.8051 17.0687C21.51 17.4814 22.0647 17.9105 22.4863 18.3486L23.9275 16.962C23.3529 16.3647 22.6433 15.8274 21.8156 15.3428L20.8051 17.0687ZM22.4981 18.3607C22.9113 18.7759 23.2079 19.2198 23.4031 19.6932L25.2521 18.9308C24.9492 18.1961 24.4987 17.5357 23.9157 16.9499L22.4981 18.3607ZM23.4071 19.7027C23.5969 20.15 23.7011 20.6704 23.7011 21.2793H25.7011C25.7011 20.4386 25.5563 19.6474 25.2481 18.9213L23.4071 19.7027ZM23.7011 21.2793C23.7011 22.1042 23.5305 22.7774 23.2234 23.3308L24.972 24.3014C25.4695 23.4052 25.7011 22.3872 25.7011 21.2793H23.7011ZM23.2284 23.3218C22.9055 23.8896 22.4576 24.3738 21.8678 24.7759L22.9943 26.4285C23.8221 25.8641 24.4853 25.1576 24.967 24.3104L23.2284 23.3218ZM21.8817 24.7666C21.277 25.1641 20.5575 25.477 19.7105 25.695L20.209 27.6319C21.2394 27.3667 22.1674 26.9722 22.9803 26.4378L21.8817 24.7666ZM19.7227 25.692C18.889 25.8954 17.9827 26 17 26V28C18.1246 28 19.1915 27.8803 20.1968 27.635L19.7227 25.692Z" fill="black" mask="url(#path-2-outside-1_5905_36127)"/>
<path d="M20.505 34.9295L20.4237 35.5H21H33.2047H33.6115L33.6943 35.1017L34.4896 31.2726L34.6145 30.6709H34H26.9199L28.7608 16.0625L28.8317 15.5H28.2647H23.7071H23.2732L23.2121 15.9295L20.505 34.9295Z" fill="white" stroke="black"/>
<path d="M8.07227 24.752L2.92188 21.957V21.4648L8.07227 18.6582V19.6016L4.20508 21.7168L8.07227 23.8027V24.752Z" fill="white"/>
<path d="M35.9277 19.248L41.0781 22.043L41.0781 22.5352L35.9277 25.3418L35.9277 24.3984L39.7949 22.2832L35.9277 20.1973L35.9277 19.248Z" fill="white"/>
</svg>
